<?xml version="1.0" encoding="UTF-8"?>
<svg version="1.1" xmlns="http://www.w3.org/2000/svg" width="1920" height="1080">
<path d="M0 0 C633.6 0 1267.2 0 1920 0 C1920 356.4 1920 712.8 1920 1080 C1286.4 1080 652.8 1080 0 1080 C0 723.6 0 367.2 0 0 Z " fill="#01245C" transform="translate(0,0)"/>
<path d="M0 0 C0.67746086 -0.00367669 1.35492172 -0.00735338 2.0529117 -0.01114148 C4.3281237 -0.02217418 6.60329003 -0.0260215 8.87852478 -0.02983093 C10.50804286 -0.03609607 12.1375595 -0.04274292 13.76707458 -0.04974365 C19.12444565 -0.07078653 24.48181699 -0.08114861 29.83921814 -0.09111023 C31.68488009 -0.09515818 33.53054189 -0.09927512 35.37620354 -0.10346031 C44.05053497 -0.12251519 52.72485788 -0.13674366 61.39920622 -0.14507228 C71.40241581 -0.15483583 81.40540359 -0.18113102 91.40853506 -0.22157317 C99.14542006 -0.25177585 106.88224165 -0.26654523 114.61918443 -0.26985329 C119.23730238 -0.27219973 123.85518345 -0.28110655 128.47323799 -0.30631447 C132.82271502 -0.32967189 137.17180055 -0.33379777 141.52132416 -0.32355309 C143.11195875 -0.32305942 144.70261311 -0.32932975 146.2931881 -0.34310913 C159.35571477 -0.44987771 168.97645823 1.63684161 178.99156189 10.45967102 C185.64453275 17.98803278 186.5159248 25.29983057 186.51373291 34.99728394 C186.5174096 35.87684641 186.52108629 36.75640889 186.52487439 37.66262478 C186.53586872 40.60352443 186.53974773 43.5443887 186.54356384 46.48530579 C186.54983137 48.596279 186.55647843 50.70725112 186.56347656 52.81822205 C186.58447318 59.74166603 186.59487024 66.66511015 186.60484314 73.58857727 C186.6088914 75.97267608 186.61300834 78.35677477 186.61719322 80.74087334 C186.63622992 91.93482868 186.65046792 103.12877745 186.65880519 114.32274586 C186.66859253 127.24983869 186.69495746 140.17676098 186.73530608 153.10379368 C186.76542491 163.09541902 186.78026978 173.08699532 186.7835862 183.0786652 C186.78594019 189.04745015 186.79494717 195.01605257 186.82004738 200.98478889 C186.84326098 206.59497616 186.84758838 212.20485978 186.837286 217.81508255 C186.836789 219.87545848 186.84315741 221.93584904 186.85684204 223.99617958 C186.87446227 226.80583432 186.86750375 229.6143874 186.85430908 232.42404175 C186.87076295 233.65088719 186.87076295 233.65088719 186.88754922 234.90251738 C186.84516173 238.63294552 186.50523974 240.91777019 184.55873394 244.1376791 C181.58609747 246.86259705 179.33566532 247.00283999 175.36656189 247.14717102 C172.36656189 246.14717102 172.36656189 246.14717102 170.60118103 244.22993469 C168.73905435 239.58032553 169.85306351 235.67911957 170.61265564 230.82295227 C172.57216499 213.76385556 174.53704711 195.22852869 163.47349548 180.86445618 C152.70124968 167.59865473 139.4693697 156.04292381 126.30349731 145.20986938 C116.06791016 136.67822393 116.06791016 136.67822393 115.02940369 128.48823547 C115.04140808 127.67056702 115.05341248 126.85289856 115.06578064 126.01045227 C115.05740173 125.1035968 115.04902283 124.19674133 115.04039001 123.2624054 C115.04956222 121.38210402 115.07054236 119.50182588 115.10289001 117.6217804 C115.06746896 115.00994375 114.98555343 112.68620638 114.36656189 110.14717102 C111.61139466 107.62944846 111.61139466 107.62944846 108.36656189 106.14717102 C106.72203064 104.33076477 106.72203064 104.33076477 105.55406189 102.58467102 C105.15574158 102.00588196 104.75742126 101.4270929 104.34703064 100.83076477 C101.38300702 95.74114652 101.74578735 89.82797989 102.36656189 84.14717102 C104.85431923 77.13727533 110.86107015 72.39991689 117.36656189 69.14717102 C125.52886022 68.3837906 130.62589407 69.85731281 137.05406189 74.95967102 C140.88215462 78.43205602 143.03141657 81.41992597 143.67906189 86.69013977 C143.95758514 93.00043212 143.19185081 98.01201045 139.36656189 103.14717102 C138.29293821 103.99297699 137.20935471 104.82628162 136.11656189 105.64717102 C131.84380242 109.64533155 132.48442259 115.44927582 132.27671814 120.88154602 C133.71011869 130.9035024 148.41261759 141.30905693 155.42906189 148.27217102 C156.59270942 149.43078814 157.75612235 150.58964092 158.91929626 151.74873352 C161.73236254 154.55092866 164.54855563 157.34994416 167.36656189 160.14717102 C167.46004145 143.0401716 167.53055875 125.93325199 167.57381058 108.82605553 C167.59442778 100.88271416 167.62253212 92.93953157 167.6683197 84.99629211 C167.70821344 78.07221101 167.73400083 71.14824491 167.74291587 64.22405207 C167.74812639 60.55836093 167.76035495 56.89299878 167.78948212 53.22741318 C167.82174995 49.13329786 167.82251969 45.03975295 167.82066345 40.94551086 C167.84223511 39.12642212 167.84223511 39.12642212 167.86424255 37.27058411 C167.85316558 28.87384518 167.85316558 28.87384518 163.36656189 22.14717102 C159.48604505 20.19507412 156.27151664 19.88993536 151.95681763 19.86869812 C150.66257874 19.85753464 149.36833984 19.84637115 148.03488159 19.83486938 C146.60792571 19.83250464 145.1809695 19.83032895 143.75401306 19.82832336 C142.24590011 19.81902157 140.73779229 19.80885252 139.22969055 19.79788208 C135.14128494 19.77059634 131.05291375 19.75543691 126.96444106 19.74245405 C122.68961246 19.72681728 118.4148541 19.70002879 114.14007568 19.67442322 C106.0477201 19.62764512 97.95535129 19.59089631 89.86292964 19.55775034 C80.64891899 19.51952212 71.43497889 19.47011379 62.22102773 19.41976619 C43.26959077 19.31646074 24.31811073 19.22719581 5.36656189 19.14717102 C5.37766495 20.02334076 5.38876801 20.8995105 5.40020752 21.80223083 C5.50051053 30.07074901 5.57657803 38.33906203 5.62562275 46.60804939 C5.65168532 50.85898476 5.68702118 55.10941625 5.74375916 59.36006165 C5.79819985 63.46441962 5.82800755 67.56829383 5.8409481 71.67298508 C5.85016652 73.23669422 5.86816852 74.80037771 5.89521217 76.36388016 C5.93166611 78.55930947 5.93650091 80.7527559 5.93418884 82.94844055 C5.9452919 84.19642426 5.95639496 85.44440796 5.96783447 86.73020935 C5.16811705 91.27490983 3.58948218 92.8955552 0.36656189 96.14717102 C-2.46738198 97.56414295 -4.84217549 97.26663031 -8.01087952 97.26069641 C-8.99155144 97.26091545 -8.99155144 97.26091545 -9.99203491 97.26113892 C-12.15639038 97.26044138 -14.32066015 97.25265642 -16.48500061 97.24482727 C-17.98429823 97.24296253 -19.48359645 97.24153889 -20.9828949 97.24053955 C-24.93175433 97.23671881 -28.88057707 97.2268923 -32.829422 97.21583557 C-36.85783898 97.20561193 -40.88626189 97.20103989 -44.91468811 97.19599915 C-52.82095496 97.18526964 -60.72719197 97.16819852 -68.63343811 97.14717102 C-68.61995625 126.6005393 -68.58103058 156.05378757 -68.50658249 185.50706575 C-68.49781573 188.98426835 -68.48926593 192.46147146 -68.48085022 195.93867493 C-68.47917116 196.63092369 -68.47749209 197.32317246 -68.47576215 198.03639846 C-68.44909209 209.24530949 -68.43999707 220.45416939 -68.43739668 231.6631089 C-68.43433726 243.16448257 -68.41201967 254.66568395 -68.37291354 266.16699445 C-68.35155896 272.62717992 -68.33899573 279.08711548 -68.34728432 285.54733658 C-68.35480863 291.62622107 -68.33906681 297.70459852 -68.30537796 303.78339005 C-68.29712525 306.01585903 -68.29741748 308.24837824 -68.3068409 310.48084259 C-68.31842797 313.52717114 -68.29939662 316.57182833 -68.27267456 319.61802673 C-68.28334782 320.50324969 -68.29402108 321.38847265 -68.30501777 322.30052054 C-68.23608374 326.50722557 -67.95095706 329.29974964 -65.28773594 332.65780258 C-59.40476944 338.17522078 -51.95875559 337.43260139 -44.36146545 337.40254211 C-43.24681412 337.40616257 -42.13216278 337.40978302 -40.98373413 337.41351318 C-38.57203869 337.42038842 -36.16032776 337.42291614 -33.74862289 337.42156601 C-29.93242133 337.42059916 -26.11650014 337.43356066 -22.30033875 337.45054626 C-11.45337965 337.49678178 -0.60646633 337.52152207 10.24058533 337.5280304 C16.8817771 337.53218319 23.52270875 337.5572431 30.16381454 337.59335709 C32.6939708 337.60316792 35.22416757 337.60548009 37.75433731 337.60018539 C41.28767355 337.59313525 44.82012567 337.61035432 48.3533783 337.63301086 C49.39973953 337.62483841 50.44610077 337.61666595 51.52416992 337.60824585 C55.98716577 337.65925591 58.62038852 337.69571095 62.49971008 340.04283142 C65.12934501 343.00699006 65.39393761 345.1032225 65.64781189 348.95576477 C65.36656189 351.14717102 65.36656189 351.14717102 62.99156189 354.14717102 C62.12531189 354.80717102 61.25906189 355.46717102 60.36656189 356.14717102 C60.03656189 356.47717102 59.70656189 356.80717102 59.36656189 357.14717102 C57.83088083 357.25169513 56.29042107 357.28680136 54.75120544 357.29434204 C53.25410538 357.305075 53.25410538 357.305075 51.72676086 357.31602478 C50.62240692 357.31871368 49.51805298 357.32140259 48.38023376 357.32417297 C47.22411591 357.33074417 46.06799805 357.33731537 44.87684631 357.34408569 C41.02966759 357.36388353 37.18252809 357.37549817 33.33531189 357.38545227 C32.02355484 357.3895278 30.71179779 357.39360332 29.36029053 357.39780235 C23.12978037 357.41687064 16.89928212 357.43109299 10.66874838 357.43941432 C3.48634437 357.44916552 -3.6957497 357.47542215 -10.87804461 357.51591522 C-16.43315143 357.54615358 -21.98816989 357.56089085 -27.54335737 357.56419533 C-30.85870417 357.56653894 -34.17364634 357.57739955 -37.48892212 357.60065651 C-41.1968483 357.62504246 -44.90397166 357.62408276 -48.61195374 357.61714172 C-50.24419388 357.63635681 -50.24419388 357.63635681 -51.90940857 357.65596008 C-62.18649833 357.58603997 -70.05029785 354.0409349 -77.63343811 347.14717102 C-89.49657167 334.92786947 -88.20580148 319.10067149 -88.13514709 303.28218079 C-88.13893424 300.86490566 -88.14443754 298.44763271 -88.15151978 296.03036499 C-88.16399313 290.17080417 -88.15794846 284.31144085 -88.14284419 278.45190264 C-88.1259147 271.6226003 -88.12920271 264.79335093 -88.13293827 257.96403407 C-88.13880357 245.78065129 -88.12469349 233.59737219 -88.09999084 221.41401672 C-88.07603695 209.59854758 -88.06900262 197.78321673 -88.07948303 185.96772766 C-88.09089205 173.08235573 -88.09282538 160.1970476 -88.07838494 147.31167644 C-88.07685915 145.93814052 -88.0753388 144.56460459 -88.07382393 143.19106865 C-88.07306611 142.51534094 -88.0723083 141.83961322 -88.07152752 141.14340891 C-88.06678746 136.38467468 -88.06863389 131.62596898 -88.07288933 126.86723518 C-88.07832943 120.4674106 -88.06757721 114.06773513 -88.04593468 107.66794395 C-88.04036174 105.31731946 -88.03990613 102.96667655 -88.04488754 100.61605072 C-88.05082577 97.41275477 -88.03836315 94.2100482 -88.02111816 91.00680542 C-88.02712821 90.07238178 -88.03313825 89.13795815 -88.03933042 88.17521864 C-87.99157813 83.3124275 -87.74207074 80.12560166 -84.63343811 76.14717102 C-83.97794983 75.26931946 -83.97794983 75.26931946 -83.30921936 74.37373352 C-80.80918927 71.43673542 -78.26684837 68.76566174 -75.30262756 66.29512024 C-69.43662079 61.21187818 -64.0428147 55.65059151 -58.58234215 50.14067459 C-56.57997133 48.12075051 -54.57393686 46.10453062 -52.56686401 44.08927917 C-46.86672011 38.36480846 -41.17240635 32.63456324 -35.48231506 26.90010071 C-31.98898717 23.38004198 -28.49084483 19.86482824 -24.98966408 16.35258102 C-23.65888255 15.01558691 -22.33000215 13.67669774 -21.00305748 12.33589554 C-19.15543445 10.46912486 -17.30179611 8.60853252 -15.44667053 6.7492218 C-14.62610924 5.91551811 -14.62610924 5.91551811 -13.78897095 5.06497192 C-9.21039012 0.49819603 -6.34314154 0.02229655 0 0 Z " fill="#F7F8F9" transform="translate(840.6334381103516,259.8528289794922)"/>
<path d="M0 0 C3.28522965 1.76344335 6.30673977 3.61347954 8 7 C8.83354272 11.46847646 8.92898256 15.37095323 6.63671875 19.390625 C4.52462594 22.03183423 2.29041827 24.51164435 0 27 C-1.42567149 28.65034751 -2.8352268 30.3136991 -4.24511719 31.97753906 C-5.77463887 33.77901982 -7.31516207 35.57047705 -8.859375 37.359375 C-11.91456601 40.89915641 -14.95830792 44.44861898 -18 48 C-18.9960807 49.16146953 -19.99217448 50.32292783 -20.98828125 51.484375 C-23.03073967 53.8669104 -25.06933382 56.25268375 -27.10546875 58.640625 C-31.57540939 63.87776795 -36.0529519 69.09432474 -40.6875 74.1875 C-43.69814479 77.5008308 -46.56565178 80.88941929 -49.375 84.375 C-53.05701535 88.92940923 -56.92900357 93.23747565 -60.91577148 97.52124023 C-63.8868675 100.73263407 -66.69946588 104.02609763 -69.4375 107.4375 C-72.80346464 111.62237553 -76.33177829 115.58312431 -80 119.5 C-84.47915827 124.28316399 -88.68451422 129.20814948 -92.7890625 134.3203125 C-95.90245797 138.09379181 -99.22633515 141.65968095 -102.5390625 145.2578125 C-104.91039895 147.90015883 -107.15252997 150.60694167 -109.375 153.375 C-113.24154184 158.1706049 -117.34851983 162.66878667 -121.5559082 167.16137695 C-125.47892724 171.37411123 -129.11903719 175.76404453 -132.72265625 180.25390625 C-135.66341007 183.79996103 -138.78756128 187.16084434 -141.92529297 190.53076172 C-144.81605272 193.6543074 -147.54112913 196.85559305 -150.1875 200.1875 C-154.31952429 205.31690947 -158.74408272 210.13454517 -163.25 214.9375 C-163.93602295 215.67186279 -164.6220459 216.40622559 -165.32885742 217.1628418 C-174.31658083 226.66860227 -174.31658083 226.66860227 -179.234375 227.63671875 C-186.74929947 227.74526766 -191.4481859 227.21401042 -197.06640625 222.0390625 C-197.70449219 221.36617187 -198.34257813 220.69328125 -199 220 C-199.56589844 219.40960937 -200.13179687 218.81921875 -200.71484375 218.2109375 C-202.5423894 216.18988702 -204.26862747 214.10412275 -206 212 C-206.86405911 210.98282079 -207.73009157 209.96731592 -208.59765625 208.953125 C-213.47279345 203.24651644 -218.24524552 197.47731303 -222.90625 191.59375 C-225.3881168 188.51919859 -227.93869648 185.50839754 -230.5 182.5 C-235.99355331 176.04002289 -241.31572672 169.46098619 -246.515625 162.76171875 C-251.7407437 156.04343864 -257.08879137 149.47559272 -262.65917969 143.04003906 C-266.40392927 138.71207086 -270.03968193 134.30737721 -273.63671875 129.85546875 C-275.42180244 127.69861556 -277.23001184 125.58632956 -279.08203125 123.48828125 C-279.61699219 122.87855469 -280.15195312 122.26882813 -280.703125 121.640625 C-281.74151951 120.46108949 -282.78664207 119.28742707 -283.83984375 118.12109375 C-288.03526033 113.34235722 -291.48110054 108.24312165 -292.5 101.875 C-291.67169756 97.11226097 -289.04405803 94.23981891 -286 90.625 C-280.99757895 87.91535526 -276.52011013 87.8795939 -271 89 C-268.60473633 90.6394043 -268.60473633 90.6394043 -266.33203125 92.82421875 C-265.04510376 94.04830444 -265.04510376 94.04830444 -263.73217773 95.29711914 C-262.83055908 96.18906982 -261.92894043 97.08102051 -261 98 C-260.06679932 98.91837646 -259.13359863 99.83675293 -258.17211914 100.78295898 C-255.21871993 103.70961561 -252.29477956 106.66485483 -249.375 109.625 C-247.40673785 111.62027751 -245.4348768 113.61190293 -243.4609375 115.6015625 C-242.60290527 116.47119629 -241.74487305 117.34083008 -240.86083984 118.23681641 C-238.67891808 120.34425714 -236.48134314 122.33601393 -234.18652344 124.31347656 C-229.77246077 128.14201952 -225.66131056 132.22933653 -221.5546875 136.3828125 C-220.7811795 137.16010712 -220.00767151 137.93740173 -219.21072388 138.73825073 C-216.76301902 141.19806667 -214.31860324 143.66110987 -211.875 146.125 C-208.64615819 149.3805317 -205.41395538 152.63267236 -202.1796875 155.8828125 C-201.44829559 156.62250275 -200.71690369 157.36219299 -199.96334839 158.1242981 C-192.33391374 166.56085085 -192.33391374 166.56085085 -182.19140625 170.5078125 C-177.0488786 169.31613943 -173.5401023 164.65914083 -170 161 C-168.98734846 160.00347978 -167.97164875 159.01004882 -166.953125 158.01953125 C-161.88827918 153.45661919 -161.88827918 153.45661919 -158 148 C-157.34 148 -156.68 148 -156 148 C-155.78453144 147.4599083 -155.56906288 146.91981661 -155.34706497 146.3633585 C-153.52244246 143.16214905 -151.04075493 140.76186158 -148.44696045 138.18626404 C-147.87370411 137.60918215 -147.30044777 137.03210027 -146.70982003 136.43753105 C-144.786226 134.50361207 -142.85555086 132.57692317 -140.92480469 130.65014648 C-139.5446913 129.26568633 -138.16499665 127.88080864 -136.78569031 126.49554443 C-133.03618331 122.73263178 -129.28027921 118.97616648 -125.52279949 115.22121692 C-122.3872951 112.08678128 -119.25477019 108.94937635 -116.12219834 105.81201035 C-108.73176837 98.41047954 -101.33601501 91.01429753 -93.93701172 83.62133789 C-86.30298859 75.99335459 -78.6781865 68.35624243 -71.05784106 60.71459717 C-64.51624883 54.15539327 -57.96886861 47.60200672 -51.41683698 41.05323082 C-47.50314421 37.1413519 -43.59171491 33.22727525 -39.68587494 29.30755424 C-36.01213158 25.62124452 -32.33121637 21.94225039 -28.64466286 18.26875305 C-27.29323696 16.91969514 -25.94436241 15.56807579 -24.59824944 14.21371651 C-22.75935096 12.36436807 -20.91143447 10.5245215 -19.06097412 8.68675232 C-18.5311917 8.14959561 -18.00140928 7.61243891 -17.45557284 7.05900472 C-12.25220647 1.93035522 -7.4327075 -1.04318702 0 0 Z " fill="#FAFBFC" transform="translate(1168,421)"/>
<path d="M0 0 C5.49436516 2.99756764 9.24747689 6.38583036 12.8125 11.5 C13.24433594 12.11230469 13.67617187 12.72460938 14.12109375 13.35546875 C16.6031814 17.24607673 16.97079565 19.97907633 16.8125 24.5 C17.70710938 24.64695312 18.60171875 24.79390625 19.5234375 24.9453125 C27.74904464 26.47117139 34.07172754 28.52075345 40.8125 33.5 C41.53179688 34.0259375 42.25109375 34.551875 42.9921875 35.09375 C50.02553278 40.72042622 55.29344428 48.53757124 56.8125 57.5 C57.22063525 64.48266172 57.2681746 70.90037451 54.8125 77.5 C55.39128906 77.76683594 55.97007813 78.03367187 56.56640625 78.30859375 C63.90795921 82.2028088 68.41981041 88.05712284 71.8125 95.5 C72.35970703 96.62341797 72.35970703 96.62341797 72.91796875 97.76953125 C75.91401056 106.91465452 74.61382661 118.26587889 70.49609375 126.79296875 C68.14362698 130.57547333 65.39426558 133.76888039 62.2890625 136.953125 C60.33845689 138.95911058 58.51997501 140.9843073 56.70239258 143.10620117 C52.6855455 147.71047708 48.42253788 152.0341445 44.09765625 156.34765625 C43.28308456 157.16318466 42.46851288 157.97871307 41.6292572 158.81895447 C39.91690807 160.53198008 38.20331158 162.24375965 36.48852539 163.9543457 C33.88247985 166.55503552 31.28181478 169.16101956 28.68164062 171.76757812 C27.00813301 173.44042486 25.33431518 175.11296134 23.66015625 176.78515625 C22.8922023 177.55513443 22.12424835 178.32511261 21.33302307 179.11842346 C17.22075153 183.21312084 13.03171774 187.14895167 8.61651611 190.91616821 C5.42097481 193.72168633 2.47259802 196.77464187 -0.5 199.8125 C-1.7020471 201.04009539 -2.90638527 202.26545265 -4.11328125 203.48828125 C-4.89312378 204.28552612 -4.89312378 204.28552612 -5.6887207 205.09887695 C-9.42572043 208.59238427 -12.07244196 208.97805469 -16.9609375 208.8984375 C-20.47839028 208.26899858 -22.05711418 206.22955683 -24.1875 203.5 C-24.5175 203.17 -24.8475 202.84 -25.1875 202.5 C-25.94557573 191.48145745 -23.87107469 183.31541231 -19.1875 173.5 C-18.76597656 172.54738281 -18.34445312 171.59476563 -17.91015625 170.61328125 C-12.78817872 159.5322163 -4.60615492 148.60365158 7.203125 144.25 C10.39115876 143.25632714 13.58032112 142.33760733 16.8125 141.5 C17.48923447 138.09679066 17.48923447 138.09679066 17.8125 134.5 C15.91867609 132.18506079 15.91867609 132.18506079 12.75 132.1875 C1.39481769 133.08870495 -7.46560796 139.10234969 -15.26171875 147.1328125 C-18.2896664 150.85479278 -20.55416803 154.94935711 -22.83984375 159.15625 C-23.28457031 159.9296875 -23.72929688 160.703125 -24.1875 161.5 C-24.5175 161.5 -24.8475 161.5 -25.1875 161.5 C-25.1875 143.02 -25.1875 124.54 -25.1875 105.5 C-16.7725 104.51 -16.7725 104.51 -8.1875 103.5 C4.94551478 101.05365411 14.91451912 95.50874222 22.8125 84.5 C25.48367543 79.97613282 26.45463927 75.78841533 27 70.625 C27.08185547 69.93664062 27.16371094 69.24828125 27.24804688 68.5390625 C27.44620738 66.86052643 27.63077787 65.18039519 27.8125 63.5 C25.1725 63.5 22.5325 63.5 19.8125 63.5 C19.60496094 64.03367187 19.39742187 64.56734375 19.18359375 65.1171875 C14.83779966 75.62709958 9.13380487 84.1843065 -1.1875 89.5 C-7.30541781 91.81802028 -12.88766748 92.55450673 -19.40283203 92.52563477 C-20.48549347 92.52193375 -21.56815491 92.51823273 -22.68362427 92.51441956 C-23.50990326 92.5096611 -24.33618225 92.50490265 -25.1875 92.5 C-25.30341339 81.26034418 -25.39222552 70.02083085 -25.44656086 58.78069878 C-25.47264088 53.56126652 -25.50801016 48.34224357 -25.56469727 43.12304688 C-25.61907339 38.08502308 -25.64893254 33.04739267 -25.66188622 28.00909805 C-25.671116 26.08814426 -25.68913994 24.1672117 -25.71615028 22.24642563 C-25.75251539 19.55297282 -25.75744229 16.86113977 -25.75512695 14.16748047 C-25.78209152 12.97956657 -25.78209152 12.97956657 -25.80960083 11.76765442 C-25.77191225 7.70847042 -25.37948308 5.24479546 -22.77897644 2.04226685 C-15.98856007 -4.61920618 -8.28916343 -3.82736781 0 0 Z " fill="#FBFBFC" transform="translate(1074.1875,269.5)"/>
<path d="M0 0 C3.56272102 2.31950981 5.55226471 3.66460662 6.91796875 7.76171875 C7.47484375 7.27960937 8.03171875 6.7975 8.60546875 6.30078125 C13.56879755 2.19262059 17.45395963 -0.60952951 23.91796875 -1.23828125 C25.42230469 -1.39490234 25.42230469 -1.39490234 26.95703125 -1.5546875 C35.12842817 -2.00440138 40.61594654 -0.54460824 46.91796875 4.76171875 C53.42978279 12.41310025 53.19946521 20.69765673 53.11328125 30.2578125 C53.11045135 31.44649429 53.10762146 32.63517609 53.10470581 33.85987854 C53.09355081 37.63976293 53.06845441 41.41940651 53.04296875 45.19921875 C53.03293292 47.76887678 53.02380812 50.33853853 53.015625 52.90820312 C52.99362672 59.19280049 52.95912876 65.47721885 52.91796875 71.76171875 C46.97796875 71.76171875 41.03796875 71.76171875 34.91796875 71.76171875 C34.90862305 70.21266846 34.89927734 68.66361816 34.88964844 67.06762695 C34.84976333 61.31798594 34.78400751 55.56888081 34.71044922 49.81958008 C34.68223123 47.3316944 34.66102088 44.84371893 34.64697266 42.35571289 C34.62555554 38.77834068 34.57890855 35.20204902 34.52734375 31.625 C34.52611511 30.5133699 34.52488647 29.40173981 34.52362061 28.25642395 C34.4307465 22.10785267 34.4307465 22.10785267 32.01635742 16.55517578 C28.93704837 13.92334282 26.98490919 14.23514004 23.10546875 14.46484375 C20.40750686 14.83099572 18.28459566 15.39911538 15.91796875 16.76171875 C13.14245156 20.92499454 12.80754034 24.63107751 12.71264648 29.55200195 C12.69270126 30.47257889 12.67275604 31.39315582 12.65220642 32.34162903 C12.62713768 33.81221016 12.62713768 33.81221016 12.6015625 35.3125 C12.5807814 36.32644333 12.56000031 37.34038666 12.53858948 38.38505554 C12.47335761 41.6147096 12.41433173 44.84444296 12.35546875 48.07421875 C12.31225846 50.26758623 12.26864337 52.46094578 12.22460938 54.65429688 C12.11770326 60.02335682 12.01636178 65.39249632 11.91796875 70.76171875 C5.97796875 70.76171875 0.03796875 70.76171875 -6.08203125 70.76171875 C-6.11176025 68.57446167 -6.11176025 68.57446167 -6.14208984 66.34301758 C-6.21820712 60.92894326 -6.30691554 55.51513555 -6.39941406 50.10131836 C-6.43767841 47.75892402 -6.47253571 45.41647142 -6.50390625 43.07397461 C-6.5496115 39.70535475 -6.60759786 36.33713502 -6.66796875 32.96875 C-6.67951996 31.92274124 -6.69107117 30.87673248 -6.70297241 29.79902649 C-6.7228421 28.8183873 -6.74271179 27.83774811 -6.76318359 26.82739258 C-6.77650726 25.9680159 -6.78983093 25.10863922 -6.80355835 24.22322083 C-7.11952258 21.43032209 -7.86158104 19.28801832 -9.08203125 16.76171875 C-13.21488814 13.8376114 -18.23557125 13.97750192 -23.08203125 14.76171875 C-26.42828149 17.28847914 -27.76180972 18.80105417 -29.08203125 22.76171875 C-29.19651602 24.34133034 -29.25826057 25.92505727 -29.28735352 27.50854492 C-29.30729874 28.46931442 -29.32724396 29.43008392 -29.34779358 30.41996765 C-29.37286232 31.97165398 -29.37286232 31.97165398 -29.3984375 33.5546875 C-29.4192186 34.61585281 -29.43999969 35.67701813 -29.46141052 36.77033997 C-29.52684363 40.16323312 -29.58576218 43.55620425 -29.64453125 46.94921875 C-29.68772239 49.24805497 -29.73133687 51.54688328 -29.77539062 53.84570312 C-29.8825187 59.4842949 -29.98380393 65.12296518 -30.08203125 70.76171875 C-35.69203125 70.76171875 -41.30203125 70.76171875 -47.08203125 70.76171875 C-47.08203125 47.33171875 -47.08203125 23.90171875 -47.08203125 -0.23828125 C-41.80203125 -0.23828125 -36.52203125 -0.23828125 -31.08203125 -0.23828125 C-30.75203125 1.74171875 -30.42203125 3.72171875 -30.08203125 5.76171875 C-29.17453125 4.97796875 -28.26703125 4.19421875 -27.33203125 3.38671875 C-20.14116364 -2.823576 -8.76312895 -3.52080086 0 0 Z " fill="#F7F8F9" transform="translate(854.08203125,724.23828125)"/>
<path d="M0 0 C4.76999824 2.88887217 8.85789443 5.93899034 12.1875 10.4375 C12.6928125 11.11296875 13.198125 11.7884375 13.71875 12.484375 C19.42615268 22.18695956 19.25535257 37.06165274 16.60742188 47.78710938 C13.4561013 56.89760293 7.73155101 63.59999358 -0.7890625 67.9609375 C-10.29799089 72.06861301 -18.73153951 73.04332109 -28.625 69.75 C-39.37182624 65.27858019 -44.9665409 58.46010367 -49.48828125 47.6640625 C-51.10722198 43.14545465 -51.31081314 38.8920748 -51.25 34.125 C-51.24242676 33.29121826 -51.23485352 32.45743652 -51.22705078 31.59838867 C-50.95848135 21.5113522 -48.04090514 12.71366993 -40.8125 5.4375 C-29.35951279 -3.64799692 -13.61044237 -6.47705062 0 0 Z " fill="#F6F8F8" transform="translate(1312.8125,725.5625)"/>
<path d="M0 0 C6.06371275 3.15881853 10.99451958 7.54664041 13.45703125 14.08984375 C13.20885137 16.01069287 12.92601534 17.92718136 12.62109375 19.83984375 C12.52843962 25.86404659 14.22445974 28.70517124 18.16156006 32.95874023 C21.63439349 36.43104544 25.20888145 39.77546718 28.83203125 43.08984375 C31.03111404 45.15359096 33.22076004 47.22659237 35.40396118 49.30712891 C36.75955279 50.59333019 38.1258614 51.86835588 39.5039978 53.13037109 C43.499349 56.85408277 46.27885769 59.53181299 46.56497192 65.24536133 C46.5870938 67.96803363 46.52308308 70.68062422 46.44921875 73.40234375 C46.43052643 75.46872453 46.41500489 77.53513596 46.40234375 79.6015625 C46.37594363 82.83753272 46.3326773 86.06858553 46.234375 89.30322266 C45.47017235 103.5781271 45.47017235 103.5781271 51.43940735 115.98771667 C53.51433438 118.0809611 55.66914741 120.01193849 57.96105957 121.86431885 C60.01528828 123.5471772 61.82149652 125.43502557 63.65625 127.3515625 C64.81623876 128.49630497 65.97886536 129.63838269 67.14453125 130.77734375 C74.23322881 137.71505734 74.23322881 137.71505734 74.89453125 141.77734375 C74.35218101 145.88370984 72.85973149 147.6633644 70.2578125 150.76953125 C67.82483566 152.55336243 66.42670095 152.39348205 63.45703125 152.08984375 C61.6164093 150.87068176 61.6164093 150.87068176 59.8918457 149.13989258 C58.91106804 148.17307304 58.91106804 148.17307304 57.91047668 147.1867218 C57.2207225 146.48057236 56.53096832 145.77442291 55.8203125 145.046875 C55.0996611 144.32626389 54.3790097 143.60565277 53.63652039 142.86320496 C52.11521716 141.33654107 50.60003662 139.8037551 49.09057617 138.26538086 C46.78173773 135.91477107 44.45238991 133.58611982 42.11914062 131.25976562 C40.64326346 129.77339319 39.16861232 128.28580216 37.6953125 126.796875 C36.65157219 125.75283257 36.65157219 125.75283257 35.58674622 124.68769836 C28.48590759 117.41152079 28.48590759 117.41152079 28.43937683 112.05903625 C28.54261457 109.50579443 28.72992373 106.96602862 28.921875 104.41796875 C30.96638912 80.62432957 30.96638912 80.62432957 21.90234375 59.59375 C16.85671375 54.06361899 11.03549117 49.34917108 4.96313477 44.99536133 C2.45703125 43.08984375 2.45703125 43.08984375 0.45703125 40.08984375 C-3.30848723 39.91417961 -6.98387187 40.1630962 -10.74609375 40.375 C-16.28170526 39.95925963 -19.09720013 37.30025469 -23.23046875 33.83984375 C-27.28268709 29.02098951 -29.23355782 23.55321866 -28.95703125 17.16796875 C-27.56037777 10.15834938 -23.23491508 5.08631671 -17.54296875 1.08984375 C-12.18604213 -2.08379765 -5.80445027 -2.07747606 0 0 Z " fill="#F6F8F9" transform="translate(929.54296875,384.91015625)"/>
<path d="M0 0 C10.80482874 6.94475732 18.56503886 14.77116482 21.50390625 27.609375 C21.50390625 28.599375 21.50390625 29.589375 21.50390625 30.609375 C19.63003148 30.9489769 17.75473928 31.28076191 15.87890625 31.609375 C14.83476563 31.795 13.790625 31.980625 12.71484375 32.171875 C9.5981576 32.59653297 6.64459813 32.68482706 3.50390625 32.609375 C3.2615625 32.01769531 3.01921875 31.42601562 2.76953125 30.81640625 C-0.33197906 23.50399924 -3.44523191 18.31683477 -10.67578125 14.5703125 C-17.39909623 12.27954313 -24.77125497 12.3091032 -31.47265625 14.6484375 C-37.44651896 17.87901583 -41.76085394 22.37191936 -44.49609375 28.609375 C-46.31468949 34.71222814 -46.85403156 40.64060769 -46.80859375 46.984375 C-46.8029541 47.81364502 -46.79731445 48.64291504 -46.79150391 49.49731445 C-46.61371125 58.50576906 -45.34856916 66.76140451 -39.4140625 73.8828125 C-33.40595951 79.29132884 -26.11542808 81.43409172 -18.13671875 81.03515625 C-10.80063957 79.85226774 -4.8386839 76.19956442 0.19140625 70.796875 C1.94277093 67.87793387 2.68222983 64.89608068 3.50390625 61.609375 C5.77521281 61.91841671 8.0459393 62.23172407 10.31640625 62.546875 C11.58097656 62.72089844 12.84554688 62.89492188 14.1484375 63.07421875 C17.50390625 63.609375 17.50390625 63.609375 20.50390625 64.609375 C19.3316468 74.22190247 14.82919868 82.14363812 7.3984375 88.375 C-4.18548132 96.49399443 -16.50266769 98.81236716 -30.49609375 97.609375 C-41.26156145 94.94193134 -51.73027187 89.27232132 -58.1171875 79.9921875 C-66.94689854 64.73404661 -69.99762104 47.02000403 -65.40234375 29.65234375 C-62.91281296 22.0601885 -59.07533655 15.35551822 -53.49609375 9.609375 C-52.9134375 8.98804688 -52.33078125 8.36671875 -51.73046875 7.7265625 C-38.59678175 -5.02083959 -16.49152252 -8.54582535 0 0 Z " fill="#F6F8F8" transform="translate(1056.49609375,699.390625)"/>
<path d="M0 0 C19.8 0 39.6 0 60 0 C60 5.28 60 10.56 60 16 C46.14 16 32.28 16 18 16 C18 23.92 18 31.84 18 40 C30.21 40 42.42 40 55 40 C55 44.95 55 49.9 55 55 C42.79 55 30.58 55 18 55 C18 63.91 18 72.82 18 82 C32.19 82 46.38 82 61 82 C61 86.95 61 91.9 61 97 C40.87 97 20.74 97 0 97 C0 64.99 0 32.98 0 0 Z " fill="#F8F9F9" transform="translate(593,698)"/>
<path d="M0 0 C0.5671875 0.39316406 1.134375 0.78632812 1.71875 1.19140625 C2.2859375 1.55363281 2.853125 1.91585937 3.4375 2.2890625 C7.66651377 5.3468053 10.10016473 9.31955825 11.71875 14.19140625 C12.24189853 18.47154511 12.18590439 22.6973548 12.109375 27.00390625 C12.10371521 28.21336914 12.09805542 29.42283203 12.09222412 30.66894531 C12.06993613 34.51017795 12.01975094 38.35045824 11.96875 42.19140625 C11.94867534 44.80467397 11.93042627 47.4179564 11.9140625 50.03125 C11.8700957 56.4183325 11.80111813 62.80470822 11.71875 69.19140625 C6.43875 69.19140625 1.15875 69.19140625 -4.28125 69.19140625 C-4.61125 67.21140625 -4.94125 65.23140625 -5.28125 63.19140625 C-5.80074219 63.60132813 -6.32023438 64.01125 -6.85546875 64.43359375 C-7.55285156 64.97242188 -8.25023437 65.51125 -8.96875 66.06640625 C-9.65324219 66.60007812 -10.33773437 67.13375 -11.04296875 67.68359375 C-17.15160831 71.79866333 -23.11302547 71.91279445 -30.28125 71.19140625 C-37.62628585 69.30138932 -43.41323082 64.73243662 -47.453125 58.3359375 C-49.60225549 52.77050052 -48.75770763 46.09723675 -47.34375 40.44140625 C-43.27557967 34.03095604 -38.28203057 29.38448547 -30.90625 27.19140625 C-22.50129929 25.47766955 -13.81211686 25.95047173 -5.28125 26.19140625 C-5.53745684 24.58483865 -5.81180871 22.98115795 -6.09375 21.37890625 C-6.24457031 20.48558594 -6.39539063 19.59226562 -6.55078125 18.671875 C-7.3570881 15.93388116 -8.00289167 14.87494842 -10.28125 13.19140625 C-14.44178817 11.73351275 -18.93506914 11.61511708 -23.28125 12.19140625 C-27.05586133 14.80459871 -27.50182981 16.74285577 -29.28125 21.19140625 C-34.89125 20.53140625 -40.50125 19.87140625 -46.28125 19.19140625 C-45.11409889 12.1884996 -43.02201526 7.93217151 -38.03125 2.94140625 C-37.12375 2.36390625 -36.21625 1.78640625 -35.28125 1.19140625 C-34.73726562 0.82015625 -34.19328125 0.44890625 -33.6328125 0.06640625 C-24.6262082 -5.05988236 -9.02457284 -5.13899287 0 0 Z " fill="#F6F8F9" transform="translate(781.28125,725.80859375)"/>
<path d="M0 0 C6.85001112 4.30228769 12.27956412 10.36259806 14.8203125 18.12890625 C16.36021503 24.88495747 16.0625 30.67785354 16.0625 37.8125 C0.5525 37.8125 -14.9575 37.8125 -30.9375 37.8125 C-28.80537958 48.15833123 -28.80537958 48.15833123 -22.109375 54.9140625 C-17.13907918 56.97012012 -11.04433678 56.51874357 -6.0625 54.625 C-2.79080874 53.04789987 -2.79080874 53.04789987 -1.1875 50.0625 C1.0625 47.8125 1.0625 47.8125 3.64453125 47.6796875 C7.63264602 48.02466204 11.25925609 48.54475203 15.0625 49.8125 C13.10323104 58.04142963 9.69934348 62.37619011 2.98046875 67.35546875 C-5.84202963 72.72111087 -17.11176127 71.81837271 -27 70.1875 C-33.83322718 68.31067551 -40.33757649 62.85522875 -43.9375 56.8125 C-49.37687508 44.35339085 -51.16905159 31.44017992 -46.875 18.375 C-43.26059073 9.44469074 -38.10929495 3.27460894 -29.4296875 -1.11328125 C-20.36318351 -3.90219467 -8.68025364 -4.09249196 0 0 Z " fill="#F6F8F8" transform="translate(965.9375,725.1875)"/>
<path d="M0 0 C1.3139978 0.00761353 1.3139978 0.00761353 2.65454102 0.01538086 C11.51444303 0.33008353 17.58942811 3.07964952 23.9765625 9.39453125 C25.34132811 11.09849299 26.30158956 12.724124 27.25 14.6875 C27.72179688 15.60015625 27.72179688 15.60015625 28.203125 16.53125 C31.60916626 24.58189298 30.25 31.45819651 30.25 40.6875 C15.07 40.6875 -0.11 40.6875 -15.75 40.6875 C-13.86531005 50.06163357 -13.86531005 50.06163357 -8.75 56.6875 C-2.61333219 59.38763384 4.06635571 59.14133572 10.36328125 56.953125 C12.84934288 55.28545633 13.87163245 53.30639835 15.25 50.6875 C17.2087043 50.82826315 19.16696093 50.9752676 21.125 51.125 C22.21554687 51.20621094 23.30609375 51.28742187 24.4296875 51.37109375 C27.25 51.6875 27.25 51.6875 29.25 52.6875 C28.63550705 59.13967601 26.14271612 62.88081643 21.5 67.3125 C20.43132866 68.12384998 19.34739828 68.91544803 18.25 69.6875 C17.73308594 70.08324219 17.21617188 70.47898437 16.68359375 70.88671875 C9.56138301 75.4277256 -0.83284312 74.74272072 -8.90209961 73.30371094 C-18.23939198 71.14819748 -24.26307355 66.24152015 -29.375 58.23046875 C-34.68867404 48.40319091 -34.55658707 32.29709376 -31.56640625 21.6328125 C-27.68219753 12.3776166 -20.9338271 5.86596175 -12.01123047 1.53198242 C-8.04744657 0.05166192 -4.19586167 -0.03504272 0 0 Z " fill="#F6F8F8" transform="translate(1117.75,722.3125)"/>
<path d="M0 0 C16.77356867 -2.3805283 16.77356867 -2.3805283 21.86425781 1.37548828 C24.96229539 4.88054592 27.06410802 8.88956086 29.0546875 13.09863281 C30.45651738 15.91822246 32.19978628 18.42022945 34 21 C35.60473003 18.4378513 37.20880182 15.87529445 38.8125 13.3125 C39.26431641 12.59126953 39.71613281 11.87003906 40.18164062 11.12695312 C40.62314453 10.42119141 41.06464844 9.71542969 41.51953125 8.98828125 C41.96014893 8.30290283 42.4007666 7.61752441 42.85473633 6.91137695 C44.13970832 4.88402333 44.13970832 4.88402333 45.1875 2 C47 0 47 0 49.10229492 -0.38012695 C51.81616634 -0.49452842 54.47415025 -0.4348926 57.1875 -0.3125 C58.59805664 -0.27866211 58.59805664 -0.27866211 60.03710938 -0.24414062 C62.35967473 -0.18519227 64.67903776 -0.10297785 67 0 C65.49789729 3.19872564 63.69437757 6.042591 61.69921875 8.95703125 C61.05146484 9.90513672 60.40371094 10.85324219 59.73632812 11.83007812 C59.06021484 12.81427734 58.38410156 13.79847656 57.6875 14.8125 C57.02298828 15.78509766 56.35847656 16.75769531 55.67382812 17.75976562 C55.02220703 18.71173828 54.37058594 19.66371094 53.69921875 20.64453125 C52.7544165 22.02825928 52.7544165 22.02825928 51.79052734 23.43994141 C50.23603452 25.66252278 48.61334108 27.80282899 46.95703125 29.94921875 C44.74682134 32.68032792 44.74682134 32.68032792 45.24316406 34.98046875 C46.54033699 38.44182824 48.80982889 41.31966467 50.9375 44.3125 C51.93301937 45.73907579 52.92779262 47.1661725 53.921875 48.59375 C54.43041016 49.32078125 54.93894531 50.0478125 55.46289062 50.796875 C57.89657366 54.28505094 60.30231532 57.7910163 62.6875 61.3125 C63.12118896 61.94003174 63.55487793 62.56756348 64.00170898 63.21411133 C67 67.6562277 67 67.6562277 67 71 C50.94741604 73.22494747 50.94741604 73.22494747 46.19921875 69.640625 C43.14592691 66.13762351 41.06743919 62.14260742 39.04394531 57.98388672 C37.34309042 54.75162599 35.18215106 51.92347415 33 49 C32.33613281 50.00160156 31.67226563 51.00320313 30.98828125 52.03515625 C30.09641734 53.37764614 29.20448668 54.72009168 28.3125 56.0625 C27.87744141 56.71927734 27.44238281 57.37605469 26.99414062 58.05273438 C26.11050267 59.38146404 25.21621088 60.70316608 24.31176758 62.01782227 C22.97467389 63.97404621 22.97467389 63.97404621 21.8972168 66.04272461 C20.73706503 68.04500797 19.76636607 69.49927391 18 71 C14.68411167 71.83409437 11.57918396 71.66765902 8.1875 71.4375 C7.30384766 71.40591797 6.42019531 71.37433594 5.50976562 71.34179688 C3.3384086 71.25963742 1.16876987 71.13408489 -1 71 C0.45321526 66.87498793 2.48145444 63.62894042 5 60.0625 C5.38937744 59.50908936 5.77875488 58.95567871 6.17993164 58.38549805 C7.44819536 56.58667273 8.72407477 54.79339695 10 53 C10.91560834 51.70329708 11.83097058 50.40642036 12.74609375 49.109375 C13.64271985 47.84338912 14.53984285 46.57775501 15.4375 45.3125 C15.86224609 44.71252197 16.28699219 44.11254395 16.72460938 43.49438477 C18.37983486 41.17566522 19.981577 39.018423 22 37 C21.65704633 33.39119205 19.76047825 30.87296719 17.75 27.9375 C16.69039062 26.37708984 16.69039062 26.37708984 15.609375 24.78515625 C13.60575298 21.87159585 11.59122811 18.96560786 9.578125 16.05859375 C8.98805664 15.20338135 8.39798828 14.34816895 7.79003906 13.46704102 C6.60390913 11.74948216 5.4132018 10.03507474 4.21777344 8.32397461 C3.6715332 7.53385986 3.12529297 6.74374512 2.5625 5.9296875 C2.06878906 5.22054199 1.57507813 4.51139648 1.06640625 3.78076172 C0 2 0 2 0 0 Z " fill="#F7F8F9" transform="translate(660,724)"/>
<path d="M0 0 C5.61 0 11.22 0 17 0 C17 6.6 17 13.2 17 20 C22.61 20 28.22 20 34 20 C34 24.95 34 29.9 34 35 C28.72 35 23.44 35 18 35 C18.06880536 40.35731449 18.15673609 45.71384311 18.26245117 51.07055664 C18.2957174 52.89305919 18.32374406 54.71566519 18.34643555 56.53833008 C18.37995081 59.1575125 18.43226352 61.77574548 18.48828125 64.39453125 C18.49467117 65.21025101 18.5010611 66.02597076 18.50764465 66.8664093 C18.50786927 71.07894443 18.50786927 71.07894443 20.34465027 74.72099304 C22.87647241 76.67720693 25.05189603 76.28864852 28.1875 76.1875 C31.0646875 76.0946875 31.0646875 76.0946875 34 76 C34 80.62 34 85.24 34 90 C26.16816056 92.61061315 17.40050609 93.62172632 9.3203125 91.1953125 C3.93261274 88.24732584 1.79384385 83.69007433 0 78 C-0.48542467 74.48015567 -0.47058426 71.04376928 -0.390625 67.49609375 C-0.38496521 66.5322023 -0.37930542 65.56831085 -0.37347412 64.57521057 C-0.35127407 61.52877879 -0.30110936 58.48356984 -0.25 55.4375 C-0.22991381 53.35874107 -0.21166677 51.27996351 -0.1953125 49.20117188 C-0.1514631 44.13365108 -0.08255081 39.06703209 0 34 C-2.97 34 -5.94 34 -9 34 C-9 29.38 -9 24.76 -9 20 C-6.03 20 -3.06 20 0 20 C0 13.4 0 6.8 0 0 Z " fill="#F6F8F9" transform="translate(1222,704)"/>
<path d="M0 0 C5.61 0 11.22 0 17 0 C17.33 2.64 17.66 5.28 18 8 C18.45890625 7.59007812 18.9178125 7.18015625 19.390625 6.7578125 C20.00421875 6.21898437 20.6178125 5.68015625 21.25 5.125 C21.85328125 4.59132813 22.4565625 4.05765625 23.078125 3.5078125 C28.81236338 -0.99100054 33.87929219 -0.154798 41 0 C41 5.28 41 10.56 41 16 C37.77734375 16.16276042 34.5546875 16.32552083 31.33203125 16.48828125 C27.83391577 17.02550649 25.9146557 18.06897589 23 20 C22.34 20 21.68 20 21 20 C18.71959173 25.49698415 18.65685875 30.57636602 18.5859375 36.4296875 C18.56657135 37.42001984 18.5472052 38.41035217 18.5272522 39.43069458 C18.46770447 42.5787101 18.4211703 45.72676268 18.375 48.875 C18.3367974 51.01564052 18.29774435 53.15626604 18.2578125 55.296875 C18.16202327 60.5311275 18.07790072 65.76545194 18 71 C12.06 71 6.12 71 0 71 C0 47.57 0 24.14 0 0 Z " fill="#F6F8F8" transform="translate(1161,724)"/>
<path d="M0 0 C1.10007889 -0.0098568 1.10007889 -0.0098568 2.22238159 -0.01991272 C4.6602996 -0.03969466 7.09815581 -0.05132045 9.53613281 -0.0612793 C10.36744972 -0.06535482 11.19876663 -0.06943035 12.05527496 -0.07362938 C16.45709487 -0.09451321 20.8588834 -0.10880361 25.26074219 -0.11816406 C29.80835086 -0.12922017 34.35546907 -0.16360387 38.90290451 -0.20333576 C42.39793812 -0.2294861 45.89285476 -0.23785458 49.3879776 -0.24144554 C51.0641129 -0.24631736 52.74024276 -0.25794835 54.41628265 -0.27648354 C56.76489489 -0.30083731 59.11223759 -0.29991719 61.4609375 -0.29296875 C62.49760056 -0.31218384 62.49760056 -0.31218384 63.5552063 -0.33178711 C68.2857267 -0.28085259 70.66768176 0.83792676 73.98925781 4.17700195 C75.13860076 6.84114711 75.29257452 9.29835471 74.98925781 12.17700195 C72.96547516 15.50178774 71.22795401 17.01787115 67.98925781 19.17700195 C64.82157898 19.46461487 64.82157898 19.46461487 60.85913086 19.51513672 C60.13681274 19.52667282 59.41449463 19.53820892 58.67028809 19.5500946 C56.28049559 19.58440626 53.89096131 19.60290416 51.50097656 19.6184082 C50.68377451 19.62531111 49.86657246 19.63221401 49.0246067 19.6393261 C44.69942657 19.67516246 40.37437693 19.69870105 36.04907227 19.71240234 C31.58633112 19.72894906 27.125175 19.78736913 22.66296673 19.855546 C19.22705949 19.90037145 15.79153077 19.91389966 12.35535622 19.9190197 C10.71068343 19.92690582 9.06602248 19.94652907 7.42163658 19.97824287 C-5.39205334 20.20905866 -5.39205334 20.20905866 -9.36264038 17.67745972 C-11.89133399 14.85682754 -12.88234503 12.76062542 -13.69824219 9.05200195 C-12.78629631 5.23841011 -10.94966604 3.68583939 -8.01074219 1.17700195 C-6.1028173 -0.73092293 -2.59844098 0.00999271 0 0 Z " fill="#F5F7F8" transform="translate(813.0107421875,389.822998046875)"/>
<path d="M0 0 C0.75508347 -0.00890762 1.51016693 -0.01781525 2.28813171 -0.0269928 C4.77492639 -0.04824044 7.25911959 -0.02599377 9.74584961 -0.0012207 C11.47790288 -0.00272348 13.20995545 -0.00615437 14.94200134 -0.01142883 C18.56779901 -0.01575752 22.19270641 0.00105764 25.81835938 0.03320312 C30.46491638 0.07301476 35.10980707 0.06367195 39.75641727 0.03896809 C43.33131059 0.02478474 46.90581471 0.03487121 50.48068047 0.0524807 C52.19388334 0.05832853 53.90712606 0.05703102 55.62031746 0.04845619 C58.01470577 0.04046166 60.40665264 0.06470652 62.80078125 0.09765625 C63.50790253 0.08910614 64.2150238 0.08055603 64.943573 0.07174683 C68.67319252 0.16031435 70.07799575 0.5052351 72.77122498 3.17301941 C74.98287122 6.83086732 75.33301043 9.61199425 74.33569336 13.76049805 C72.1599492 16.45155003 70.4250348 18.21582733 67.33569336 19.76049805 C65.06016685 19.87835242 62.78114595 19.93037458 60.50268555 19.95336914 C59.8000206 19.96154663 59.09735565 19.96972412 58.37339783 19.97814941 C56.04313001 20.00300315 53.71292318 20.01952081 51.38256836 20.03393555 C50.18848736 20.04192106 50.18848736 20.04192106 48.97028351 20.0500679 C44.75534528 20.07680164 40.54043667 20.09617426 36.32543945 20.1105957 C31.97624784 20.12722857 27.62781622 20.17199338 23.27891159 20.22296715 C19.93138787 20.25666304 16.58404386 20.26817571 13.23636627 20.27382278 C11.6336004 20.28053073 10.03084617 20.29574112 8.42824554 20.31971359 C6.18029876 20.35141606 3.93439191 20.35139549 1.6862793 20.34399414 C0.40879822 20.35208099 -0.86868286 20.36016785 -2.18487549 20.36849976 C-6.77729959 19.56601177 -8.38697545 18.01950188 -11.66430664 14.76049805 C-13.11578567 11.85753999 -13.0366969 9.98788026 -12.66430664 6.76049805 C-9.11128535 1.27635029 -6.59887611 -0.1283696 0 0 Z " fill="#F8F9F9" transform="translate(812.664306640625,440.239501953125)"/>
<path d="M0 0 C5.79994217 2.00767229 9.36361862 5.74446232 12.11328125 11.21484375 C14.52526247 18.7908024 14.25387481 28.50173625 10.8125 35.6875 C9.91829157 37.1523221 8.98472481 38.59442911 8 40 C7.319375 41.03125 6.63875 42.0625 5.9375 43.125 C1.16234554 46.17297093 -3.5190127 45.98861309 -9 45 C-14.02904365 42.78077789 -16.33428028 38.92691956 -18.4375 34 C-20.87794114 26.25608938 -21.79590492 17.10366136 -18.4375 9.5 C-13.89770825 2.13474345 -8.79370923 -1.59154884 0 0 Z " fill="#05285E" transform="translate(1300,737)"/>
<path d="M0 0 C0 14.52 0 29.04 0 44 C-14.52 44 -29.04 44 -44 44 C-37.24828443 36.1229985 -37.24828443 36.1229985 -33.93823242 32.80883789 C-33.20114548 32.06859879 -32.46405853 31.32835968 -31.70463562 30.56568909 C-30.92941055 29.79248825 -30.15418549 29.01928741 -29.35546875 28.22265625 C-28.54507645 27.41130722 -27.73468414 26.59995819 -26.8997345 25.76402283 C-25.19911444 24.06272598 -23.49724579 22.3626764 -21.79418945 20.66381836 C-19.17477713 18.04980335 -16.56079589 15.43044145 -13.94726562 12.81054688 C-12.29198759 11.15592889 -10.63639978 9.50162073 -8.98046875 7.84765625 C-8.19512253 7.0602858 -7.40977631 6.27291534 -6.60063171 5.46168518 C-5.5186425 4.38442421 -5.5186425 4.38442421 -4.41479492 3.28540039 C-3.45932014 2.331119 -3.45932014 2.331119 -2.48454285 1.3575592 C-1 0 -1 0 0 0 Z " fill="#06285F" transform="translate(827,293)"/>
<path d="M0 0 C0.91299937 8.4029757 0.91299937 8.4029757 -1.23046875 12.15234375 C-4.11279746 15.51861901 -6.94416671 18.72631322 -11.5234375 19.3359375 C-15.89029069 19.39575741 -19.16602255 19.37610748 -23.1875 17.5625 C-25.50078685 14.291991 -25.66004978 12.06336355 -25.4140625 8.12109375 C-25 6 -25 6 -23.4375 3.5625 C-16.17341563 -1.09396434 -8.3512794 -0.20849241 0 0 Z " fill="#0E2F64" transform="translate(776,764)"/>
<path d="M0 0 C2.78944065 2.22744032 5.05038968 4.58933282 6.08984375 8.01953125 C6.08984375 9.99953125 6.08984375 11.97953125 6.08984375 14.01953125 C-3.15015625 14.01953125 -12.39015625 14.01953125 -21.91015625 14.01953125 C-20.69962993 5.54584704 -20.69962993 5.54584704 -16.91015625 1.01953125 C-12.34457825 -1.93466628 -4.8938595 -2.51198105 0 0 Z " fill="#06295F" transform="translate(1124.91015625,737.98046875)"/>
<path d="M0 0 C2.92753195 2.64871938 4.26711082 4.67852391 5.625 8.375 C5.625 10.025 5.625 11.675 5.625 13.375 C-3.615 13.375 -12.855 13.375 -22.375 13.375 C-21.20177165 3.98917323 -21.20177165 3.98917323 -17.375 0.375 C-11.96734649 -2.8695921 -5.53818548 -2.66653375 0 0 Z " fill="#05275E" transform="translate(958.375,738.625)"/>
<path d="M0 0 C0.70706085 0.00359528 1.4141217 0.00719055 2.14260864 0.01089478 C3.25473473 0.01067574 3.25473473 0.01067574 4.389328 0.01045227 C6.85130696 0.01115152 9.31321119 0.01894442 11.775177 0.02676392 C13.47768614 0.02862806 15.18019582 0.03005198 16.88270569 0.03105164 C21.37245148 0.03487714 25.86216513 0.0447077 30.35189819 0.05575562 C34.92983566 0.06596903 39.50777831 0.07054911 44.08572388 0.07559204 C53.07467032 0.08632994 62.06359287 0.10340675 71.05252075 0.12442017 C71.05252075 0.45442017 71.05252075 0.78442017 71.05252075 1.12442017 C69.65976677 1.12655769 69.65976677 1.12655769 68.23887634 1.1287384 C59.48407651 1.14657563 50.72978185 1.18821053 41.97522449 1.25651073 C37.4744737 1.29078651 32.97406254 1.31589159 28.47317505 1.31997681 C24.12863407 1.32425856 19.78485933 1.35271034 15.44055748 1.39785194 C13.78403882 1.410831 12.12742848 1.41513315 10.47086525 1.41057396 C8.14804211 1.40567045 5.82746068 1.43174408 3.50491333 1.46499634 C2.47991982 1.45205788 2.47991982 1.45205788 1.43421936 1.43885803 C-2.35164789 1.52958258 -3.88303008 2.07212153 -6.86247253 4.48985291 C-8.99475003 7.18415045 -9.65767261 8.74334277 -9.94747925 12.12442017 C-10.27747925 12.12442017 -10.60747925 12.12442017 -10.94747925 12.12442017 C-11.25997925 9.43692017 -11.25997925 9.43692017 -10.94747925 6.12442017 C-8.50997925 3.31192017 -8.50997925 3.31192017 -5.94747925 1.12442017 C-4.27411929 -0.54893979 -2.23360016 0.00479121 0 0 Z " fill="#DFE6E2" transform="translate(810.9474792480469,389.8755798339844)"/>
<path d="M0 0 C3.96 0 7.92 0 12 0 C12 0.33 12 0.66 12 1 C8.7 1.33 5.4 1.66 2 2 C1.97531142 8.78100315 1.95714544 15.56198022 1.94506836 22.34301758 C1.94003449 24.6506394 1.93320695 26.95825803 1.92456055 29.26586914 C1.91245365 32.57959786 1.90676227 35.89328448 1.90234375 39.20703125 C1.89718246 40.2414888 1.89202118 41.27594635 1.88670349 42.3417511 C1.88662796 43.3025206 1.88655243 44.2632901 1.88647461 45.25317383 C1.884254 46.09922684 1.88203339 46.94527985 1.87974548 47.81697083 C1.91375879 50.18055791 1.91375879 50.18055791 3 53 C2.01 53.99 1.02 54.98 0 56 C0 37.52 0 19.04 0 0 Z " fill="#EFF2F2" transform="translate(1049,375)"/>
<path d="M0 0 C0.66 0.33 1.32 0.66 2 1 C1.06027344 1.90492188 1.06027344 1.90492188 0.1015625 2.828125 C-0.71570312 3.62734375 -1.53296875 4.4265625 -2.375 5.25 C-3.18710938 6.03890625 -3.99921875 6.8278125 -4.8359375 7.640625 C-6.75583143 9.73379455 -7.91633685 11.40397179 -9 14 C-9.66 14 -10.32 14 -11 14 C-8.8527917 7.73730913 -5.24125182 3.93093886 0 0 Z " fill="#D4DCDF" transform="translate(1277,727)"/>
<path d="M0 0 C2.05078125 0.03255208 4.1015625 0.06510417 6.15234375 0.09765625 C6.15234375 0.42765625 6.15234375 0.75765625 6.15234375 1.09765625 C4.57453125 1.19046875 4.57453125 1.19046875 2.96484375 1.28515625 C-1.56194116 2.2498809 -3.04578881 3.47171015 -5.84765625 7.09765625 C-6.72004483 9.77556521 -6.72004483 9.77556521 -6.84765625 12.09765625 C-7.17765625 12.09765625 -7.50765625 12.09765625 -7.84765625 12.09765625 C-8.16015625 9.41015625 -8.16015625 9.41015625 -7.84765625 6.09765625 C-5.41015625 3.28515625 -5.41015625 3.28515625 -2.84765625 1.09765625 C-1.84765625 0.09765625 -1.84765625 0.09765625 0 0 Z " fill="#C8D0D4" transform="translate(807.84765625,389.90234375)"/>
<path d="M0 0 C0.33 0 0.66 0 1 0 C1.41713515 1.43146378 1.8080497 2.87058886 2.1875 4.3125 C2.40792969 5.11300781 2.62835937 5.91351563 2.85546875 6.73828125 C2.90316406 7.48464844 2.95085937 8.23101562 3 9 C2.01 9.99 1.02 10.98 0 12 C0 8.04 0 4.08 0 0 Z " fill="#E8ECED" transform="translate(1049,419)"/>
</svg>
